<svg xmlns="http://www.w3.org/2000/svg" viewBox="0 0 200 200" role="img" aria-label="TripQuest app icon">
  <defs>
    <linearGradient id="sky" x1="0" y1="0" x2="0" y2="1"><stop stop-color="#44b7f0"/><stop offset="1" stop-color="#2d74d8"/></linearGradient>
    <linearGradient id="road" x1="0" y1="0" x2="1" y2="1"><stop stop-color="#ffcf57"/><stop offset="1" stop-color="#f68a45"/></linearGradient>
  </defs>
  <rect x="20" y="20" width="160" height="160" rx="38" fill="url(#sky)"/>
  <circle cx="64" cy="62" r="22" fill="#ffffff" opacity=".16"/>
  <path d="M38 151c31-22 94-22 124 0v29H38z" fill="#1e5e9f" opacity=".55"/>
  <path d="M72 88h56c15 0 27 12 27 27v15H45v-15c0-15 12-27 27-27z" fill="url(#road)"/>
  <rect x="57" y="101" width="86" height="33" rx="14" fill="#fff3c5"/>
  <circle cx="77" cy="142" r="11" fill="#082B4F"/>
  <circle cx="123" cy="142" r="11" fill="#082B4F"/>
  <path d="M71 114h58" stroke="#082B4F" stroke-width="6" stroke-linecap="round" opacity=".75"/>
  <path d="M90 69l10-17 10 17" fill="none" stroke="#fff5d6" stroke-width="6" stroke-linecap="round" stroke-linejoin="round"/>
</svg>
